<svg width="30" height="30" viewBox="0 0 30 30" fill="none" xmlns="http://www.w3.org/2000/svg">
<path d="M19.7486 2.43945C23.5161 2.43945 25.6139 4.61043 25.6139 8.33036V20.9293C25.6139 24.7103 23.5161 26.8325 19.7486 26.8325H9.52667C5.81894 26.8325 3.66016 24.7103 3.66016 20.9293V8.33036C3.66016 4.61043 5.81894 2.43945 9.52667 2.43945H19.7486ZM9.85598 19.1974C9.49008 19.1609 9.13638 19.3316 8.94124 19.6487C8.7461 19.9536 8.7461 20.3561 8.94124 20.6732C9.13638 20.9781 9.49008 21.1611 9.85598 21.1123H19.418C19.9047 21.0635 20.2718 20.6476 20.2718 20.161C20.2718 19.6609 19.9047 19.2462 19.418 19.1974H9.85598ZM19.418 13.6346H9.85598C9.33031 13.6346 8.90465 14.0627 8.90465 14.5872C8.90465 15.1116 9.33031 15.5385 9.85598 15.5385H19.418C19.9425 15.5385 20.3694 15.1116 20.3694 14.5872C20.3694 14.0627 19.9425 13.6346 19.418 13.6346ZM13.5015 8.11083H9.85598V8.12302C9.33031 8.12302 8.90465 8.5499 8.90465 9.07435C8.90465 9.5988 9.33031 10.0257 9.85598 10.0257H13.5015C14.0272 10.0257 14.4541 9.5988 14.4541 9.06093C14.4541 8.5377 14.0272 8.11083 13.5015 8.11083Z" fill="#5D7285"/>
</svg>
