<svg width="22" height="20" viewBox="0 0 22 20" fill="none" xmlns="http://www.w3.org/2000/svg">
<path d="M7.38371 18.7733V15.7156C7.38371 14.9351 8.09305 14.3023 8.96807 14.3023H12.1667C12.5869 14.3023 12.9899 14.4512 13.287 14.7162C13.5841 14.9813 13.751 15.3408 13.751 15.7156V18.7733C13.7484 19.0978 13.891 19.4099 14.1473 19.6402C14.4036 19.8705 14.7524 20 15.1162 20H17.2984C18.3176 20.0023 19.2959 19.6428 20.0175 19.0008C20.7392 18.3588 21.1447 17.487 21.1447 16.5778V7.86685C21.1447 7.13246 20.7798 6.43584 20.1483 5.96467L12.7247 0.675869C11.4333 -0.251438 9.58313 -0.221498 8.33034 0.746979L1.07617 5.96467C0.414815 6.42195 0.0195336 7.12063 0 7.86685V16.5689C0 18.4638 1.72205 20 3.8463 20H5.97871C6.73428 20 7.34834 19.4562 7.35381 18.7822L7.38371 18.7733Z" fill="#5D7285"/>
</svg>
