<svg width="30" height="30" viewBox="0 0 30 30" fill="none" xmlns="http://www.w3.org/2000/svg">
<path d="M19.9197 2.43945C24.0535 2.43945 26.8305 5.33992 26.8305 9.65578V19.6161C26.8305 23.932 24.0535 26.8325 19.9185 26.8325H9.34826C5.21452 26.8325 2.4375 23.932 2.4375 19.6161V9.65578C2.4375 5.33992 5.21452 2.43945 9.34826 2.43945H19.9197ZM21.2647 15.3068C19.9573 14.4912 18.948 15.6366 18.6757 16.0029C18.4132 16.3566 18.1876 16.7467 17.9496 17.1369C17.3683 18.0998 16.7023 19.21 15.5495 19.8557C13.8741 20.7833 12.6023 19.9287 11.6874 19.3069C11.344 19.0753 11.0104 18.8563 10.678 18.7103C9.85874 18.3566 9.12164 18.7594 8.02765 20.1489C7.45367 20.8752 6.88459 21.5951 6.30816 22.3126C5.96353 22.7418 6.0457 23.4038 6.51053 23.6908C7.25253 24.1477 8.15765 24.3932 9.18051 24.3932H19.4594C20.0395 24.3932 20.6209 24.3139 21.1752 24.1326C22.4237 23.7248 23.4147 22.7909 23.9323 21.5574C24.3689 20.5202 24.5811 19.2616 24.1727 18.2143C24.0365 17.867 23.8329 17.5435 23.5472 17.259C22.7978 16.5151 22.0975 15.8204 21.2647 15.3068ZM10.3638 7.31805C8.68237 7.31805 7.3161 8.68617 7.3161 10.3672C7.3161 12.0482 8.68237 13.4163 10.3638 13.4163C12.0441 13.4163 13.4116 12.0482 13.4116 10.3672C13.4116 8.68617 12.0441 7.31805 10.3638 7.31805Z" fill="#5D7285"/>
</svg>
