<svg width="30" height="30" viewBox="0 0 30 30" fill="none" xmlns="http://www.w3.org/2000/svg">
<path d="M14.5727 17.7336C18.7576 17.7336 22.3309 18.397 22.3309 21.0519C22.3309 23.7057 18.7805 24.3933 14.5727 24.3933C10.3879 24.3933 6.81461 23.7299 6.81461 21.0761C6.81461 18.4212 10.365 17.7336 14.5727 17.7336ZM21.2638 16.1349C22.8637 16.1052 24.5837 16.3249 25.2193 16.4809C26.5658 16.7456 27.4515 17.2861 27.8184 18.0714C28.1286 18.7162 28.1286 19.4642 27.8184 20.1079C27.2571 21.3261 25.4475 21.7171 24.7442 21.8182C24.599 21.8401 24.4821 21.7138 24.4974 21.5677C24.8567 18.1923 21.9988 16.5919 21.2594 16.2239C21.2277 16.2074 21.2212 16.1821 21.2245 16.1668C21.2267 16.1558 21.2398 16.1382 21.2638 16.1349ZM7.70556 16.1326L8.00683 16.1353C8.03086 16.1386 8.04287 16.1562 8.04506 16.1661C8.04833 16.1826 8.04178 16.2067 8.0112 16.2243C7.27077 16.5923 4.4128 18.1927 4.7721 21.5671C4.78739 21.7142 4.67163 21.8395 4.52638 21.8186C3.82308 21.7175 2.01351 21.3265 1.45218 20.1083C1.14094 19.4636 1.14094 18.7166 1.45218 18.0719C1.81912 17.2865 2.7037 16.7461 4.05023 16.4803C4.68692 16.3254 6.40585 16.1057 8.00683 16.1353L7.70556 16.1326ZM14.5727 4.87891C17.422 4.87891 19.7066 7.17461 19.7066 10.0415C19.7066 12.9073 17.422 15.2052 14.5727 15.2052C11.7235 15.2052 9.43887 12.9073 9.43887 10.0415C9.43887 7.17461 11.7235 4.87891 14.5727 4.87891ZM21.5423 5.73985C24.2943 5.73985 26.4555 8.34422 25.7195 11.2452C25.2226 13.1982 23.4239 14.4954 21.42 14.4427C21.219 14.4372 21.0213 14.4185 20.8302 14.3856C20.6915 14.3614 20.6216 14.2043 20.7003 14.0879C21.4647 12.9565 21.9005 11.5956 21.9005 10.1346C21.9005 8.61004 21.4243 7.18867 20.5976 6.02325C20.5714 5.987 20.5517 5.93098 20.578 5.88924C20.5998 5.85519 20.6402 5.83761 20.6784 5.82882C20.9569 5.77171 21.243 5.73985 21.5423 5.73985ZM7.72671 5.73974C8.02594 5.73974 8.31207 5.7716 8.59164 5.82871C8.62877 5.8375 8.67027 5.85618 8.69211 5.88913C8.71723 5.93087 8.69866 5.98689 8.67245 6.02314C7.84575 7.18856 7.36961 8.60993 7.36961 10.1345C7.36961 11.5954 7.80534 12.9564 8.5698 14.0878C8.64843 14.2042 8.57854 14.3613 8.43984 14.3854C8.24764 14.4195 8.05106 14.4371 7.85012 14.4426C5.84616 14.4953 4.0475 13.198 3.55061 11.245C2.81346 8.34411 4.97468 5.73974 7.72671 5.73974Z" fill="#5D7285"/>
</svg>
